<?xml version="1.0" standalone="no"?>
<!DOCTYPE svg PUBLIC "-//W3C//DTD SVG 20010904//EN"
 "http://www.w3.org/TR/2001/REC-SVG-20010904/DTD/svg10.dtd">
<svg version="1.0" xmlns="http://www.w3.org/2000/svg"
 width="21.000000pt" height="20.000000pt" viewBox="0 0 21.000000 20.000000"
 preserveAspectRatio="xMidYMid meet">

<g transform="translate(0.000000,20.000000) scale(0.100000,-0.100000)"
fill="#000000" stroke="none">
<path d="M0 173 l0 -26 25 23 c31 29 31 30 0 30 -20 0 -25 -5 -25 -27z"/>
<path d="M170 195 c0 -3 9 -15 20 -27 l20 -22 0 27 c0 20 -5 27 -20 27 -11 0
-20 -2 -20 -5z"/>
<path d="M49 151 c-32 -32 -35 -47 -18 -84 11 -25 47 -47 74 -47 49 0 94 56
80 100 -6 19 -10 15 -38 -31 -18 -29 -36 -54 -42 -55 -10 -3 -55 60 -55 77 0
17 25 9 38 -12 13 -21 15 -20 43 22 26 39 27 45 11 51 -35 14 -64 7 -93 -21z"/>
<path d="M0 28 c0 -24 4 -28 27 -28 22 0 25 2 13 13 -8 6 -20 19 -27 27 -10
13 -12 11 -13 -12z"/>
<path d="M181 25 l-23 -25 26 0 c21 0 26 5 26 25 0 30 1 30 -29 0z"/>
</g>
</svg>
