<?xml version="1.0" standalone="no"?>
<!DOCTYPE svg PUBLIC "-//W3C//DTD SVG 20010904//EN"
 "http://www.w3.org/TR/2001/REC-SVG-20010904/DTD/svg10.dtd">
<svg version="1.0" xmlns="http://www.w3.org/2000/svg"
 width="95.000000pt" height="27.000000pt" viewBox="0 0 95.000000 27.000000"
 preserveAspectRatio="xMidYMid meet">

<g transform="translate(0.000000,27.000000) scale(0.100000,-0.100000)"
fill="#000000" stroke="none">
<path d="M1 150 c-2 -112 -1 -119 21 -134 20 -14 76 -16 451 -16 l428 0 24 25
c23 22 25 32 25 112 0 64 -4 95 -16 111 l-15 22 -459 0 -458 -1 -1 -119z m311
33 c-3 -16 -7 -22 -10 -15 -4 13 4 42 11 42 2 0 2 -12 -1 -27z m35 -3 c10 -13
8 -16 -6 -16 -13 0 -17 6 -13 19 2 10 5 16 6 15 1 -2 7 -10 13 -18z m-117 -65
c0 -35 -4 -66 -8 -69 -4 -3 -28 0 -53 5 -96 20 -89 15 -89 64 0 48 -5 45 85
63 60 13 65 8 65 -63z m190 52 c0 -7 -4 -6 -10 3 -8 12 -10 12 -10 1 0 -8 -3
-12 -6 -8 -9 9 6 28 17 22 5 -4 9 -12 9 -18z m159 -4 c2 -1 -6 -1 -18 0 -11 1
-21 8 -21 15 0 12 3 12 18 1 9 -7 19 -14 21 -16z m78 5 c-3 -8 -6 -5 -6 6 -1
11 2 17 5 13 3 -3 4 -12 1 -19z m80 0 c-3 -8 -6 -5 -6 6 -1 11 2 17 5 13 3 -3
4 -12 1 -19z m-412 -106 c-5 -5 -25 43 -25 61 1 7 7 -3 16 -22 8 -19 12 -36 9
-39z m40 -1 c-3 -3 -8 5 -12 17 -3 12 -9 19 -14 16 -10 -6 -12 19 -2 29 4 4
13 -7 20 -24 7 -18 11 -35 8 -38z m28 62 c-7 -2 -13 -12 -13 -20 0 -9 -3 -14
-6 -10 -10 10 4 37 18 36 10 0 10 -2 1 -6z m117 -29 c0 -31 -3 -35 -22 -32
-30 4 -37 38 -9 45 12 3 21 9 21 14 0 5 2 9 5 9 3 0 5 -16 5 -36z m210 26
c-13 -8 -12 -11 4 -23 21 -16 14 -38 -12 -36 -15 1 -14 2 1 6 17 4 17 6 2 23
-17 19 -13 40 8 40 7 0 6 -4 -3 -10z m45 -35 c0 -14 -2 -25 -6 -25 -8 0 -18
48 -11 55 9 8 15 -4 17 -30z m-368 -12 c-3 -10 -5 -4 -5 12 0 17 2 24 5 18 2
-7 2 -21 0 -30z m52 15 c-1 -17 -2 -19 -6 -5 -6 24 -21 21 -26 -5 -4 -20 -4
-19 -6 5 -1 21 4 27 19 27 14 0 20 -6 19 -22z m111 12 c0 -5 -7 -7 -15 -4 -10
4 -15 0 -15 -11 0 -11 5 -15 15 -11 8 3 15 1 15 -4 0 -6 -9 -10 -20 -10 -15 0
-20 7 -20 25 0 18 5 25 20 25 11 0 20 -4 20 -10z m33 -5 c4 10 10 15 13 12 3
-3 -1 -15 -9 -27 -13 -18 -15 -19 -21 -5 -3 9 -6 22 -5 28 0 7 4 3 8 -7 7 -19
8 -19 14 -1z m62 6 c-3 -5 -1 -12 5 -16 16 -10 12 -25 -7 -25 -14 0 -15 2 -4
9 9 6 10 11 2 15 -14 9 -14 26 0 26 5 0 8 -4 4 -9z m165 -1 c0 -5 -7 -7 -15
-4 -10 4 -15 0 -15 -11 0 -11 5 -15 15 -11 8 3 15 1 15 -4 0 -6 -9 -10 -20
-10 -15 0 -20 7 -20 25 0 18 5 25 20 25 11 0 20 -4 20 -10z m22 -16 c-3 -17
-7 -22 -12 -13 -9 13 -2 39 10 39 4 0 5 -12 2 -26z m63 15 c4 -6 -3 -13 -16
-16 -22 -6 -22 -7 -3 -14 16 -6 16 -8 2 -8 -21 -1 -32 15 -24 34 6 17 32 20
41 4z m-279 -25 c-4 -9 -9 -15 -11 -12 -3 3 -3 13 1 22 4 9 9 15 11 12 3 -3 3
-13 -1 -22z"/>
<path d="M133 143 c-34 -7 -32 -53 2 -53 14 0 28 0 32 0 5 0 9 13 10 30 3 31
1 32 -44 23z"/>
<path d="M470 85 c0 -8 7 -15 15 -15 8 0 15 7 15 15 0 8 -7 15 -15 15 -8 0
-15 -7 -15 -15z"/>
<path d="M935 10 c-3 -5 -1 -10 4 -10 6 0 11 5 11 10 0 6 -2 10 -4 10 -3 0 -8
-4 -11 -10z"/>
</g>
</svg>
